<svg width="22" height="22" viewBox="0 0 22 22" fill="none" xmlns="http://www.w3.org/2000/svg">
<path d="M22.0007 0V7.30165C22.0007 9.22665 20.4336 10.7917 18.5106 10.7917H11.209V3.49209C11.209 1.56507 12.7761 0 14.7011 0L22.0007 0Z" fill="#2489A8"/>
<path d="M20.2087 11.8477L17.2161 14.8423C16.1889 15.8675 14.826 16.4317 13.3742 16.4317H6.17969L9.17233 13.439C10.1975 12.4138 11.5624 11.8477 13.0122 11.8477H20.2087Z" fill="#2489A8"/>
<path d="M10.1543 1.79102V8.98752C10.1543 10.4394 9.59017 11.8022 8.56498 12.8294L5.57031 15.8221V8.62557C5.57031 7.17576 6.13649 5.81087 7.16167 4.78568L10.1543 1.79304V1.79102Z" fill="#2489A8"/>
<path d="M4.58401 7.36133V14.5578C4.58401 16.0097 4.01985 17.3725 2.99467 18.3977L0 21.3924V14.1959C0 12.744 0.566177 11.3792 1.59136 10.354L4.58401 7.36335V7.36133Z" fill="#2489A8"/>
<path d="M14.6384 17.416L11.6477 20.4087C10.6205 21.4359 9.25765 22 7.80581 22H0.611328L3.60398 19.0074C4.63118 17.9802 5.99405 17.416 7.44387 17.416H14.6404H14.6384Z" fill="#2489A8"/>
</svg>
